<svg width="18" height="15" viewBox="0 0 18 15" fill="none" xmlns="http://www.w3.org/2000/svg">
<path d="M13.1158 0C14.2333 0 15.3083 0.441667 16.0992 1.23417C16.8908 2.025 17.3333 3.09167 17.3333 4.20833V10.7917C17.3333 13.1167 15.4417 15 13.1158 15H4.88334C2.55751 15 0.666672 13.1167 0.666672 10.7917V4.20833C0.666672 1.88333 2.54917 0 4.88334 0H13.1158ZM14.0583 4.33333C13.8833 4.32417 13.7167 4.38333 13.5908 4.5L9.83334 7.5C9.35001 7.90083 8.65751 7.90083 8.16667 7.5L4.41667 4.5C4.15751 4.30833 3.79917 4.33333 3.58334 4.55833C3.35834 4.78333 3.33334 5.14167 3.52417 5.39167L3.63334 5.5L7.425 8.45833C7.89167 8.825 8.45751 9.025 9.05 9.025C9.64084 9.025 10.2167 8.825 10.6825 8.45833L14.4417 5.45L14.5083 5.38333C14.7075 5.14167 14.7075 4.79167 14.4992 4.55C14.3833 4.42583 14.2242 4.35 14.0583 4.33333Z" fill="white"/>
</svg>
