<svg width="16" height="17" viewBox="0 0 16 17" fill="none" xmlns="http://www.w3.org/2000/svg">
<path d="M7.9873 0C10.5446 0 12.6023 2.01232 12.6023 4.49667V5.77445C14.0376 6.22247 15.0833 7.52178 15.0833 9.07367V13.1878C15.0833 15.109 13.4905 16.6667 11.5268 16.6667H4.474C2.50946 16.6667 0.916664 15.109 0.916664 13.1878V9.07367C0.916664 7.52178 1.96329 6.22247 3.39774 5.77445V4.49667C3.4062 2.01232 5.46389 0 7.9873 0ZM7.99576 9.4869C7.58931 9.4869 7.25906 9.80986 7.25906 10.2074V12.0458C7.25906 12.4516 7.58931 12.7745 7.99576 12.7745C8.41069 12.7745 8.74093 12.4516 8.74093 12.0458V10.2074C8.74093 9.80986 8.41069 9.4869 7.99576 9.4869ZM8.00423 1.4492C6.28526 1.4492 4.88807 2.80731 4.87961 4.48011V5.59475H11.1204V4.49667C11.1204 2.8156 9.7232 1.4492 8.00423 1.4492Z" fill="white"/>
</svg>
