<?xml version="1.0" standalone="no"?>
<!DOCTYPE svg PUBLIC "-//W3C//DTD SVG 20010904//EN"
 "http://www.w3.org/TR/2001/REC-SVG-20010904/DTD/svg10.dtd">
<svg version="1.0" xmlns="http://www.w3.org/2000/svg"
 width="637.000000pt" height="637.000000pt" viewBox="0 0 637.000000 637.000000"
 preserveAspectRatio="xMidYMid meet">
<metadata>
Created by potrace 1.14, written by Peter Selinger 2001-2017
</metadata>
<g transform="translate(0.000000,637.000000) scale(0.100000,-0.100000)"
fill="#000000" stroke="none">
<path d="M2044 3619 c-4 -7 -8 -638 -5 -831 l1 -38 80 0 80 0 0 40 c0 33 9 53
52 110 29 39 56 70 59 70 4 0 22 -28 39 -62 18 -35 44 -80 56 -100 13 -21 24
-42 24 -48 0 -6 37 -10 95 -10 l96 0 -12 23 c-7 12 -48 84 -91 159 -116 203
-113 172 -26 280 41 51 86 109 101 129 l27 37 -90 -1 c-87 0 -92 -2 -113 -27
-12 -15 -65 -82 -117 -149 l-95 -121 -3 274 -2 274 -75 0 c-41 0 -78 -4 -81
-9z"/>
<path d="M37 3583 c-2 -5 -4 -42 -3 -83 l1 -75 50 -2 c28 -1 84 -2 125 -2 l76
-1 -1 -317 c0 -175 2 -326 4 -335 3 -15 15 -18 81 -18 54 0 79 4 82 13 2 6 3
157 3 335 -1 284 1 322 15 322 8 1 65 2 125 3 l110 2 1 83 0 82 -332 0 c-183
0 -335 -3 -337 -7z"/>
<path d="M2635 3508 l0 -83 126 -3 127 -3 1 -312 c0 -172 1 -322 1 -334 0 -22
4 -23 83 -23 l82 0 0 331 c0 182 2 334 5 337 3 4 59 7 125 7 l120 0 3 83 3 82
-338 0 -338 0 0 -82z"/>
<path d="M885 3391 c-143 -35 -235 -159 -237 -320 -1 -81 13 -132 51 -193 53
-84 155 -138 260 -138 65 0 112 15 173 56 l53 36 27 -33 c16 -18 28 -37 28
-41 0 -4 11 -8 24 -8 l24 0 -2 312 c-1 241 -4 312 -14 316 -7 2 -28 -12 -48
-32 -20 -20 -37 -36 -39 -36 -2 0 -26 16 -55 35 -77 52 -157 67 -245 46z m159
-175 c65 -42 96 -138 69 -206 -72 -173 -302 -131 -303 54 0 68 32 131 79 156
43 24 116 22 155 -4z"/>
<path d="M4010 3391 c-94 -29 -159 -86 -203 -179 -25 -53 -29 -75 -29 -140 1
-187 112 -316 284 -329 79 -6 132 8 198 52 29 19 55 35 59 35 3 0 17 -18 31
-40 16 -26 32 -40 46 -40 l21 0 1 313 0 312 -22 1 c-15 1 -29 -10 -44 -32 -12
-19 -26 -34 -31 -34 -5 0 -32 16 -61 35 -28 19 -68 39 -88 45 -42 11 -125 12
-162 1z m136 -161 c136 -52 144 -248 13 -315 -59 -31 -150 -9 -189 45 -41 57
-37 178 8 227 44 48 110 65 168 43z"/>
<path d="M4712 3379 c-75 -32 -129 -85 -168 -165 -33 -65 -36 -81 -36 -152 0
-95 27 -165 90 -228 68 -68 123 -89 227 -89 78 0 97 4 140 27 28 14 67 43 88
63 l38 37 -63 60 c-41 41 -64 56 -67 47 -2 -8 -15 -24 -29 -37 -80 -76 -210
-47 -251 56 -22 53 -10 135 26 180 63 78 158 81 229 7 l42 -43 57 58 58 58
-50 50 c-87 87 -224 116 -331 71z"/>
<path d="M5322 3378 c-90 -36 -170 -131 -187 -222 -33 -175 32 -321 175 -389
66 -32 206 -31 271 1 46 23 119 87 119 105 0 5 -25 33 -55 63 l-54 54 -16 -23
c-23 -36 -89 -69 -132 -65 -32 3 -35 5 -22 18 8 8 32 38 54 65 22 28 44 55 50
61 5 6 26 30 45 54 19 24 56 69 82 99 26 31 48 61 48 67 0 19 -63 75 -115 102
-71 36 -188 41 -263 10z m158 -148 c0 -6 -39 -62 -87 -125 -91 -119 -102 -124
-105 -53 -4 83 31 145 96 174 37 16 96 18 96 4z"/>
<path d="M5954 3379 c-119 -46 -194 -154 -202 -291 -4 -67 -1 -89 19 -140 84
-216 353 -277 518 -119 68 66 81 103 81 241 0 102 -3 127 -21 165 -63 133
-248 201 -395 144z m183 -156 c79 -37 113 -150 70 -234 -32 -63 -66 -84 -137
-84 -71 0 -104 21 -138 86 -19 36 -22 53 -17 98 13 119 119 183 222 134z"/>
<path d="M1545 3370 c-97 -21 -159 -103 -154 -204 4 -64 19 -94 69 -140 46
-41 79 -49 215 -50 116 -2 129 -6 113 -41 l-11 -25 -194 0 -193 0 0 -80 0 -80
200 0 c159 0 208 3 238 15 129 54 166 223 69 316 -42 40 -86 52 -205 55 -63 1
-120 5 -128 8 -17 7 -18 50 -1 64 6 5 71 10 147 10 74 0 150 1 168 1 l32 1 0
78 0 78 -167 0 c-93 0 -181 -2 -198 -6z"/>
<path d="M3328 3368 c-3 -7 -4 -148 -4 -313 l1 -300 80 -3 80 -3 -1 183 c0
107 4 193 10 208 23 55 80 82 166 79 87 -4 86 -4 88 59 2 106 6 102 -106 98
-102 -4 -148 -16 -196 -49 l-29 -20 -29 36 c-31 38 -52 47 -60 25z"/>
</g>
</svg>
